<svg width="35" height="35" viewBox="0 0 35 35" fill="none" xmlns="http://www.w3.org/2000/svg">
<path d="M30.7317 24H30.2317V24.5V34.5H26.1098V21.175C26.1098 18.7048 24.9697 16.7065 23.139 15.5288L24.5448 11.3661C25.0027 10.1204 26.0373 9.25 27.3171 9.25H27.4878C28.7665 9.25 29.8003 10.1188 30.2588 11.3627L34.3144 24H30.7317ZM9.39024 22.25H8.89024V22.75V34.5H3.06098V22.75V22.25H2.56098H0.5V12.25C0.5 10.5894 1.82429 9.25 3.41463 9.25H8.53659C10.1269 9.25 11.4512 10.5894 11.4512 12.25V22.25H9.39024ZM20.4878 27.5H19.9878V28V34.5H15.8659V28V27.5H15.3659H14.1585V21C14.1585 19.8644 15.1414 18.875 16.2195 18.875H19.6341C20.7123 18.875 21.6951 19.8644 21.6951 21V27.5H20.4878ZM24.4024 3.5C24.4024 1.83943 25.7267 0.5 27.3171 0.5C28.9074 0.5 30.2317 1.83943 30.2317 3.5C30.2317 5.16057 28.9074 6.5 27.3171 6.5C25.7267 6.5 24.4024 5.16057 24.4024 3.5ZM19.9878 14C19.9878 15.1356 19.005 16.125 17.9268 16.125C16.8487 16.125 15.8659 15.1356 15.8659 14C15.8659 12.8644 16.8487 11.875 17.9268 11.875C19.005 11.875 19.9878 12.8644 19.9878 14ZM8.89024 3.5C8.89024 5.16057 7.56595 6.5 5.97561 6.5C4.38527 6.5 3.06098 5.16057 3.06098 3.5C3.06098 1.83943 4.38527 0.5 5.97561 0.5C7.56595 0.5 8.89024 1.83943 8.89024 3.5Z" stroke="black"/>
</svg>
