<svg width="35" height="35" viewBox="0 0 35 35" fill="none" xmlns="http://www.w3.org/2000/svg">
<path d="M31.4998 12.2655L31.4998 12.2653C31.2699 11.016 30.5782 10.0142 29.7047 9.5462L29.7031 9.54532C28.8663 9.09302 27.9527 9.16159 27.169 9.734C26.033 10.5727 25.1603 11.9109 24.7256 13.5209C24.7256 13.5212 24.7255 13.5216 24.7254 13.5219L24.1078 15.8378L24.0653 15.9972L23.9363 16.1L23.0614 16.7973L22.2498 17.4441V16.4062V9.84375C22.2498 9.40842 21.9815 9.25 21.8748 9.25H13.1252C13.0185 9.25 12.7502 9.40842 12.7502 9.84375V16.4062V17.44L11.9398 16.7982L11.0594 16.101L10.9294 15.998L10.8867 15.8378L10.2688 13.5204L10.2686 13.5199C9.84002 11.9061 8.96325 10.5742 7.8261 9.73445C7.03603 9.16097 6.12744 9.09342 5.29147 9.54532L5.28983 9.54621C4.4164 10.0141 3.72471 11.0159 3.49481 12.2651C3.49479 12.2651 3.49478 12.2652 3.49477 12.2653L2.48861 17.7475L2.48857 17.7477C2.2591 18.9949 2.52813 20.3049 3.19254 21.2445L6.86714 26.4327L6.94544 26.5432L6.95722 26.6782L7.50949 33.0078C7.5095 33.0078 7.5095 33.0079 7.50951 33.008C7.59349 33.9575 8.20791 34.5 8.75041 34.5C8.78331 34.5 8.81402 34.4969 8.88163 34.4899C9.48639 34.4034 10.0807 33.652 9.99125 32.6163L9.43919 26.2754C9.43915 26.2751 9.43912 26.2747 9.43908 26.2743C9.36432 25.4665 9.09676 24.7248 8.67556 24.1253C8.67535 24.125 8.67515 24.1248 8.67495 24.1245L6.30784 20.7759L6.1836 20.6002L6.22587 20.3891L7.18832 15.5835L8.1617 15.5528L8.53356 16.9473L8.53407 16.9493C8.73387 17.7107 9.10839 18.3663 9.71508 18.9242L12.4941 21.1337C12.4943 21.1338 12.4946 21.134 12.4948 21.1342C12.6392 21.2476 12.9289 21.3421 13.1518 21.3682H21.8482C22.0712 21.3421 22.3609 21.2475 22.5053 21.1341C22.5055 21.134 22.5057 21.1338 22.5059 21.1337L25.2849 18.9242C25.8923 18.3657 26.2661 17.7168 26.4657 16.9502L26.4664 16.9473L26.8383 15.5528L27.8117 15.5835L28.7741 20.3891L28.8164 20.6002L28.6922 20.7759L26.3251 24.1245C26.325 24.1246 26.3249 24.1247 26.3248 24.1249C25.9034 24.7244 25.6357 25.4662 25.5609 26.2741C25.5609 26.2745 25.5609 26.275 25.5608 26.2754L25.0088 32.6163C24.9194 33.6504 25.5179 34.4033 26.1186 34.4899C26.186 34.4969 26.2167 34.5 26.2496 34.5C26.7886 34.5 27.4066 33.962 27.4905 33.0083L31.4998 12.2655ZM31.4998 12.2655L32.5114 17.7477C32.7406 18.9931 32.4674 20.3038 31.807 21.2452C31.8068 21.2455 31.8066 21.2457 31.8065 21.2459L28.1329 26.4327L28.0546 26.5432L28.0428 26.6782L27.4905 33.008L31.4998 12.2655ZM34.3972 32.1514L34.3975 32.1522C34.7014 33.0963 34.3021 34.0808 33.6753 34.3961L33.6718 34.3979C33.5324 34.4694 33.3923 34.5 33.2493 34.5C32.8215 34.5 32.3249 34.1721 32.1013 33.4736L32.1013 33.4735L30.6172 28.839L30.7059 27.83L32.2962 25.5857L34.3972 32.1514ZM0.602539 32.1522L0.602809 32.1514L2.70375 25.5857L4.29406 27.83L4.38275 28.839L2.89908 33.4723C2.89902 33.4725 2.89896 33.4727 2.8989 33.4729C2.75476 33.9187 2.49083 34.224 2.20949 34.3772C1.93709 34.5256 1.62939 34.5449 1.32264 34.3951C0.697064 34.0787 0.298942 33.0953 0.602539 32.1522ZM9.12537 3.28125C9.12537 4.92654 8.07513 6.0625 7.00049 6.0625C5.92585 6.0625 4.87561 4.92654 4.87561 3.28125C4.87561 1.63596 5.92585 0.5 7.00049 0.5C8.07513 0.5 9.12537 1.63596 9.12537 3.28125ZM30.1244 3.28125C30.1244 4.92654 29.0741 6.0625 27.9995 6.0625C26.9249 6.0625 25.8746 4.92654 25.8746 3.28125C25.8746 1.63596 26.9249 0.5 27.9995 0.5C29.0741 0.5 30.1244 1.63596 30.1244 3.28125Z" stroke="black"/>
</svg>
