<svg width="276" height="276" viewBox="0 0 276 276" fill="none" xmlns="http://www.w3.org/2000/svg">
<path d="M44.3102 103.04C51.9891 82.4609 66.2298 64.9828 84.8329 53.3048C103.436 41.6269 125.366 36.3986 147.237 38.4275C169.108 40.4565 189.702 49.6297 205.84 64.5306C221.977 79.4314 232.76 99.2308 236.522 120.871C240.284 142.511 236.817 164.788 226.656 184.261C216.495 203.734 200.205 219.32 180.303 228.612C160.4 237.903 137.992 240.384 116.539 235.67C95.0859 230.956 75.7818 219.31 61.6077 202.531L74.7359 191.441C86.4741 205.337 102.461 214.981 120.227 218.885C137.993 222.789 156.55 220.735 173.033 213.04C189.515 205.345 203.005 192.438 211.42 176.311C219.835 160.184 222.707 141.736 219.591 123.815C216.475 105.893 207.545 89.4966 194.181 77.1565C180.817 64.8164 163.762 57.2195 145.65 55.5393C127.537 53.859 109.376 58.1888 93.9698 67.8599C78.5637 77.531 66.7703 92.0054 60.411 109.048L44.3102 103.04Z" fill="#EA906C"/>
<path d="M202.5 214.418C190.764 224.324 176.904 231.393 161.995 235.078C147.086 238.764 131.529 238.965 116.529 235.668C101.53 232.371 87.4915 225.663 75.5027 216.065C63.5138 206.467 53.8967 194.236 47.3971 180.322C40.8975 166.407 37.6901 151.183 38.0236 135.829C38.357 120.475 42.2224 105.404 49.32 91.7847C56.4175 78.1656 66.5565 66.3642 78.9508 57.2957C91.345 48.2271 105.661 42.1351 120.79 39.4921L123.756 56.4718C111.236 58.6593 99.3869 63.7012 89.1291 71.2066C78.8712 78.712 70.4798 88.4792 64.6057 99.7508C58.7315 111.022 55.5324 123.496 55.2564 136.203C54.9805 148.91 57.635 161.511 63.0143 173.027C68.3935 184.543 76.3529 194.665 86.2753 202.609C96.1976 210.552 107.816 216.104 120.23 218.833C132.644 221.562 145.52 221.395 157.859 218.345C170.198 215.295 181.669 209.444 191.382 201.246L202.5 214.418Z" fill="#2B2A4C"/>
<g filter="url(#filter0_d_365_892)">
<circle cx="139" cy="136" r="50" fill="#EA906C" fill-opacity="0.65" shape-rendering="crispEdges"/>
</g>
<g filter="url(#filter1_d_365_892)">
<path d="M154.625 115.688H146.813C146.398 115.688 146.001 115.852 145.708 116.145C145.415 116.438 145.25 116.836 145.25 117.25C145.25 117.664 145.415 118.062 145.708 118.355C146.001 118.648 146.398 118.812 146.813 118.812H150.854L145.941 123.725C144.499 122.38 142.759 121.397 140.864 120.853C138.969 120.31 136.972 120.223 135.036 120.598C133.101 120.974 131.282 121.803 129.728 123.016C128.174 124.229 126.929 125.792 126.094 127.579C125.26 129.365 124.86 131.323 124.927 133.294C124.993 135.264 125.526 137.191 126.479 138.916C127.433 140.642 128.782 142.117 130.415 143.222C132.047 144.327 133.919 145.03 135.875 145.273V148.5H131.188C130.773 148.5 130.376 148.665 130.083 148.958C129.79 149.251 129.625 149.648 129.625 150.062C129.625 150.477 129.79 150.874 130.083 151.167C130.376 151.46 130.773 151.625 131.188 151.625H135.875V156.312C135.875 156.727 136.04 157.124 136.333 157.417C136.626 157.71 137.023 157.875 137.438 157.875C137.852 157.875 138.249 157.71 138.542 157.417C138.835 157.124 139 156.727 139 156.312V151.625H143.688C144.102 151.625 144.499 151.46 144.792 151.167C145.085 150.874 145.25 150.477 145.25 150.062C145.25 149.648 145.085 149.251 144.792 148.958C144.499 148.665 144.102 148.5 143.688 148.5H139V145.273C141.094 145.012 143.088 144.223 144.795 142.982C146.502 141.741 147.867 140.087 148.761 138.175C149.655 136.263 150.05 134.156 149.909 132.05C149.768 129.944 149.095 127.908 147.953 126.133L153.063 121.021V125.062C153.063 125.477 153.227 125.874 153.52 126.167C153.813 126.46 154.211 126.625 154.625 126.625C155.039 126.625 155.437 126.46 155.73 126.167C156.023 125.874 156.188 125.477 156.188 125.062V117.25C156.188 116.836 156.023 116.438 155.73 116.145C155.437 115.852 155.039 115.688 154.625 115.688ZM137.438 142.25C135.583 142.25 133.771 141.7 132.229 140.67C130.687 139.64 129.486 138.176 128.776 136.463C128.067 134.75 127.881 132.865 128.243 131.046C128.604 129.227 129.497 127.557 130.808 126.246C132.12 124.935 133.79 124.042 135.609 123.68C137.427 123.318 139.312 123.504 141.025 124.214C142.738 124.923 144.202 126.125 145.233 127.667C146.263 129.208 146.813 131.021 146.813 132.875C146.81 135.361 145.821 137.744 144.064 139.501C142.306 141.259 139.923 142.247 137.438 142.25Z" fill="white"/>
</g>
<defs>
<filter id="filter0_d_365_892" x="85" y="86" width="108" height="108" filterUnits="userSpaceOnUse" color-interpolation-filters="sRGB">
<feFlood flood-opacity="0" result="BackgroundImageFix"/>
<feColorMatrix in="SourceAlpha" type="matrix" values="0 0 0 0 0 0 0 0 0 0 0 0 0 0 0 0 0 0 127 0" result="hardAlpha"/>
<feOffset dy="4"/>
<feGaussianBlur stdDeviation="2"/>
<feComposite in2="hardAlpha" operator="out"/>
<feColorMatrix type="matrix" values="0 0 0 0 0 0 0 0 0 0 0 0 0 0 0 0 0 0 0.25 0"/>
<feBlend mode="normal" in2="BackgroundImageFix" result="effect1_dropShadow_365_892"/>
<feBlend mode="normal" in="SourceGraphic" in2="effect1_dropShadow_365_892" result="shape"/>
</filter>
<filter id="filter1_d_365_892" x="110" y="111" width="58" height="58" filterUnits="userSpaceOnUse" color-interpolation-filters="sRGB">
<feFlood flood-opacity="0" result="BackgroundImageFix"/>
<feColorMatrix in="SourceAlpha" type="matrix" values="0 0 0 0 0 0 0 0 0 0 0 0 0 0 0 0 0 0 127 0" result="hardAlpha"/>
<feOffset dy="4"/>
<feGaussianBlur stdDeviation="2"/>
<feComposite in2="hardAlpha" operator="out"/>
<feColorMatrix type="matrix" values="0 0 0 0 0 0 0 0 0 0 0 0 0 0 0 0 0 0 0.25 0"/>
<feBlend mode="normal" in2="BackgroundImageFix" result="effect1_dropShadow_365_892"/>
<feBlend mode="normal" in="SourceGraphic" in2="effect1_dropShadow_365_892" result="shape"/>
</filter>
</defs>
</svg>
