<svg width="35" height="35" viewBox="0 0 35 35" fill="none" xmlns="http://www.w3.org/2000/svg">
<path d="M34.6864 5.94897L17.7509 0.0442851C17.6254 -0.0147617 17.4373 -0.0147617 17.3118 0.0442851L0.376344 5.94897C0.188172 6.00801 0 6.2442 0 6.48039C0 6.71658 0.188172 6.95276 0.439068 7.01181L6.2724 9.07845V12.3851C6.2724 12.5032 6.2724 12.5622 6.33513 12.6803C6.39785 12.7394 6.71147 13.3298 7.52688 14.0384C7.52688 14.0974 7.46416 14.1565 7.46416 14.2155V14.2746C5.70789 14.5698 4.32796 15.9869 4.32796 17.7583C4.32796 19.5297 5.70789 20.9469 7.46416 21.2421V21.4192C7.46416 21.4783 7.96595 24.4306 10.2867 26.7925C6.96237 28.3277 4.26523 30.9258 2.69713 34.1143C2.63441 34.2914 2.63441 34.5276 2.75986 34.7048C2.8853 34.8819 3.07348 35 3.26165 35H31.7384C31.9265 35 32.1774 34.8819 32.2401 34.7048C32.3029 34.5276 32.3656 34.3505 32.3029 34.1143C30.7348 30.9258 28.0376 28.3868 24.7133 26.7925C26.9713 24.4306 27.5358 21.4783 27.5358 21.4192V21.2421C29.2921 20.9469 30.672 19.5297 30.672 17.7583C30.672 15.9869 29.2921 14.5698 27.5358 14.2746V14.2155C27.5358 14.1565 27.5358 14.0974 27.4731 14.0384C28.2885 13.3298 28.6649 12.7984 28.6649 12.6803C28.7276 12.5622 28.7276 12.5032 28.7276 12.3851V9.07845L31.2366 8.19275V13.0936C30.4839 13.3298 29.9821 13.9793 29.9821 14.7469C29.9821 15.7507 30.7975 16.5183 31.8638 16.5183C32.9301 16.5183 33.7455 15.7507 33.7455 14.7469C33.7455 13.9793 33.2437 13.3298 32.491 13.0936V7.77942L34.5609 7.07086C34.8118 7.01181 35 6.77562 35 6.53944C35 6.30325 34.9373 6.00801 34.6864 5.94897ZM31.9892 15.3374C31.6129 15.3374 31.362 15.1012 31.362 14.7469C31.362 14.3927 31.6129 14.1565 31.9892 14.1565C32.3656 14.1565 32.6165 14.3927 32.6165 14.7469C32.6165 15.1012 32.3656 15.3374 31.9892 15.3374ZM8.78136 14.9241C9.53405 15.3965 10.4122 15.8688 11.5412 16.2231C11.1022 16.7545 10.1613 17.4631 8.78136 17.6402V14.9241ZM5.64516 17.6993C5.64516 16.5774 6.46057 15.6917 7.52688 15.3965V19.9431C6.46057 19.7069 5.64516 18.8212 5.64516 17.6993ZM11.2903 27.5601C12.2939 28.3277 13.5484 28.9772 15.1165 29.2725L17.6882 33.6419H4.26523C5.89606 30.9258 8.34229 28.8001 11.2903 27.5601ZM16.7473 29.5086H18.3781L17.5627 30.8077L16.7473 29.5086ZM30.7975 33.6419H19.1935L18.19 31.9886L19.9462 29.2725C21.5143 28.9772 22.7688 28.3277 23.7724 27.5601C26.7832 28.8001 29.2294 30.9258 30.7975 33.6419ZM26.3441 21.183C26.2186 21.8326 24.9014 28.3277 17.5627 28.3277C10.2867 28.3277 8.90681 21.8326 8.78136 21.183V18.8212C11.1022 18.585 12.3566 17.2269 12.8584 16.5774C13.4229 16.6955 13.9875 16.8136 14.6147 16.9317C14.9283 17.404 16.81 19.7659 19.9462 20.2973C20.3853 20.3564 20.8244 20.4154 21.2634 20.4154H21.3262V20.7107C21.3262 21.065 21.5771 21.3011 21.9534 21.3011C22.3298 21.3011 22.5806 21.065 22.5806 20.7107V20.2973C23.8351 20.1202 25.0896 19.5888 26.3441 18.8802V21.183ZM26.3441 17.404C24.2115 18.8802 22.0789 19.4707 20.1971 19.1164C18.4409 18.8212 17.1237 17.8174 16.371 17.0498C16.7473 17.0498 17.1864 17.1088 17.5627 17.1088C21.828 17.1088 24.5878 16.046 26.3441 14.9241V17.404ZM29.4803 17.6993C29.4803 18.8212 28.6649 19.7069 27.5986 20.0021V15.4555C28.6649 15.6917 29.4803 16.5774 29.4803 17.6993ZM27.5986 12.2079C27.0968 12.8574 24.5251 15.9279 17.5627 15.9279C10.6004 15.9279 8.02867 12.8574 7.52688 12.2079V9.49178L17.3746 12.9165C17.4373 12.9165 17.5 12.9755 17.5627 12.9755C17.6254 12.9755 17.6882 12.9755 17.7509 12.9165L27.5986 9.49178V12.2079ZM17.5627 11.7356L2.44624 6.48039L17.5627 1.22522L32.6792 6.48039L17.5627 11.7356Z" fill="black"/>
<path d="M13.172 18.8802C12.7957 18.8802 12.5448 19.1164 12.5448 19.4707V20.6517C12.5448 21.0059 12.7957 21.2421 13.172 21.2421C13.5484 21.2421 13.7993 21.0059 13.7993 20.6517V19.4707C13.7993 19.1164 13.5484 18.8802 13.172 18.8802ZM20.8871 24.2535C20.5735 24.1354 20.1971 24.3126 20.0717 24.6078C20.0717 24.6078 19.5699 25.9659 17.5 25.9659C15.4928 25.9659 14.991 24.6668 14.9283 24.6078C14.8029 24.3126 14.4892 24.1354 14.1129 24.2535C13.7993 24.3716 13.6111 24.6668 13.7366 25.0211C13.7993 25.1392 14.552 27.2058 17.4373 27.2058C20.3226 27.2058 21.138 25.1392 21.138 25.0211C21.3889 24.6668 21.2007 24.3126 20.8871 24.2535Z" fill="black"/>
</svg>
