<svg width="35" height="35" viewBox="0 0 35 35" fill="none" xmlns="http://www.w3.org/2000/svg">
<path d="M11.3751 24.5625C11.3058 24.5625 11.2392 24.5751 11.1771 24.6003L11.3751 24.5625ZM11.3751 24.5625C14.3931 24.5625 17.0174 27.6777 17 31.759C16.9931 33.3827 15.9429 34.5 14.8751 34.5H2.62508C1.55722 34.5 0.507009 33.3827 0.500084 31.759C0.482744 27.6777 3.10704 24.5625 6.12507 24.5625C6.19415 24.5625 6.26021 24.575 6.32263 24.6003C7.07567 24.9059 7.88562 25.1094 8.75007 25.1094C9.61445 25.1094 10.4244 24.9059 11.1769 24.6003L11.3751 24.5625ZM12.2501 3.875H11.7501V4.375V6.86714C10.9822 6.44196 10.143 6.16124 9.25007 6.08406V3.38994C9.25007 1.67061 10.3151 0.5 11.3751 0.5H32.375C33.435 0.5 34.5 1.67061 34.5 3.38994V25.0476C34.5 26.7669 33.435 27.9375 32.375 27.9375H19.4001C19.0885 26.6775 18.5654 25.5335 17.8753 24.5625H21H21.5V24.0625V20.1875H27.5V24.0625V24.5625H28H31.5H32V24.0625V4.375V3.875H31.5H12.2501ZM13.5001 15.3125C13.5001 18.7707 11.2751 21.375 8.75007 21.375C6.22504 21.375 4.00008 18.7707 4.00008 15.3125C4.00008 11.8543 6.22504 9.25 8.75007 9.25C11.2751 9.25 13.5001 11.8543 13.5001 15.3125Z" stroke="black"/>
</svg>
